# xmcd
#
# Track frame offsets:
#	182
#	6350
#	18947
#	29057
#	34767
#	49612
#	62372
#	77267
#	88980
#	99022
#	108155
#	120122
#	131870
#	141507
#	146307
#
# Disc length: 2167 seconds
#
# Revision: 1
# Processed by: cddbd v1.5.1PL0 Copyright (c) Steve Scherf et al.
# Submitted via: audiograbber 1.83.01
#
DISCID=b708750f
DTITLE=Kid Rhino - Hey, It's Franklin!
DYEAR=2000
DGENRE=Children
TTITLE0=Hey, It's Franklin!
TTITLE1=What I Do In The Morning
TTITLE2=The Wheels On The Bus
TTITLE3=Head and Shoulders
TTITLE4=Hello
TTITLE5=Friends
TTITLE6=The Dinosaur Song
TTITLE7=Georgia Camp Meeting
TTITLE8=The Hokey Pokey
TTITLE9=Come See The World
TTITLE10=I Wonder
TTITLE11=Brothers And Sisters
TTITLE12=Wake Up Spring
TTITLE13=Wake Up Spring (Part 2)
TTITLE14=Rainforest Song
EXTD=
EXTT0=
EXTT1=
EXTT2=
EXTT3=
EXTT4=
EXTT5=
EXTT6=
EXTT7=
EXTT8=
EXTT9=
EXTT10=
EXTT11=
EXTT12=
EXTT13=
EXTT14=
PLAYORDER=
